<svg id="Layer_1" data-name="Layer 1" xmlns="http://www.w3.org/2000/svg" viewBox="0 0 353 450"><defs><style>.cls-1{fill:none;stroke:#000;stroke-miterlimit:10;stroke-width:1.5px;}</style></defs><polygon class="cls-1" points="65.21 434.28 287.13 434.2 333.7 412.82 310.48 334.9 333.7 324.14 333.65 15.72 19.3 15.72 19.3 323.71 42.32 335.11 19.3 412.27 65.21 434.28"/><polyline class="cls-1" points="61.2 15.72 61.2 323.71 77.97 334.72 61.2 412.59 94.57 434.27"/><polyline class="cls-1" points="133.85 15.72 133.93 323.71 139.99 334.69 133.85 412.74 146.3 434.25"/><polyline class="cls-1" points="219.01 15.72 218.93 323.71 212.81 334.89 219.01 412.29 206.62 434.23"/><polyline class="cls-1" points="291.54 15.72 291.58 324 274.51 334.84 291.62 412.68 257.65 434.21"/><line class="cls-1" x1="333.7" y1="412.82" x2="19.3" y2="412.27"/><line class="cls-1" x1="42.32" y1="335.11" x2="310.48" y2="334.91"/><line class="cls-1" x1="19.3" y1="323.71" x2="333.7" y2="324.14"/></svg>