<svg id="Layer_1" data-name="Layer 1" xmlns="http://www.w3.org/2000/svg" viewBox="0 0 181 99"><path d="M110.64,4.1,126,22.74l.44.53.65-.22,22.79-7.76L156,38.06l.12.42.37.2L176.4,49.5,156.46,60.32l-.37.2-.12.42-6.13,22.77L127.05,76l-.65-.22-.44.53L110.65,94.9,91.09,80.69l-.59-.43-.59.43L70.36,94.9,55,76.26l-.44-.53L54,76,31.16,83.71,25,60.94l-.12-.42-.37-.2L4.6,49.5,24.54,38.68l.37-.2.12-.42,6.13-22.77L54,23.05l.65.22.44-.53L70.35,4.1,89.91,18.31l.59.43.59-.43L110.64,4.1m.18-1.36L90.5,17.5,70.18,2.74,54.27,22.1,30.47,14,24.06,37.8,2.5,49.5,24.06,61.2,30.47,85l23.8-8.1L70.18,96.26,90.5,81.5l20.32,14.76L126.73,76.9l23.8,8.1,6.41-23.8L178.5,49.5,156.94,37.8,150.53,14l-23.8,8.1L110.82,2.74Z"/></svg>