<svg id="Layer_1" data-name="Layer 1" xmlns="http://www.w3.org/2000/svg" viewBox="0 0 80 80"><defs><style>.cls-1{fill:#d03325;}</style></defs><polygon class="cls-1" points="23.9 62.16 9.93 61.85 13.94 48.47 2.83 40 13.94 31.53 9.93 18.14 23.9 17.84 28.51 4.64 40 12.61 51.49 4.64 56.1 17.84 70.07 18.15 66.06 31.53 77.17 40 66.06 48.47 70.07 61.85 56.1 62.16 51.49 75.36 40 67.39 28.51 75.36 23.9 62.16"/><path d="M51.23,5.42l4.28,12.25.23.66h.69l13,.29L65.68,31.06l-.2.66.55.42L76.35,40,66,47.86l-.55.42.2.66,3.73,12.43-13,.29h-.69l-.23.66L51.23,74.58l-10.66-7.4-.57-.4-.57.4-10.66,7.4L24.49,62.33l-.23-.66h-.69l-13-.29,3.73-12.43.2-.66L14,47.86,3.65,40,14,32.14l.55-.42-.2-.66L10.59,18.63l13-.29h.69l.23-.66L28.77,5.42l10.66,7.4.57.4.57-.4,10.66-7.4m.51-1.57L40,12,28.26,3.85,23.54,17.34l-14.28.32,4.1,13.68L2,40l11.36,8.66L9.26,62.34l14.28.32,4.72,13.49L40,68l11.74,8.15,4.72-13.49,14.28-.32-4.1-13.68L78,40,66.64,31.34l4.1-13.68-14.28-.32L51.74,3.85Z"/></svg>